<svg width="686" height="968" viewBox="0 0 686 968" fill="none" xmlns="http://www.w3.org/2000/svg">
<path d="M953.988 667.631C954.826 773.552 912.933 857.334 828.311 918.977C743.689 980.62 656.553 984.093 566.904 929.396C477.255 874.698 393.47 846.916 315.551 846.048C237.631 845.179 165.996 813.056 100.644 749.677C35.292 686.297 1.77828 605.988 0.102593 508.749C-1.57309 411.51 17.2784 314.271 56.657 217.032C96.0357 119.792 165.577 66.3976 265.28 56.8474C364.984 47.2971 465.106 30.8012 565.647 7.35957C666.188 -16.082 744.946 16.4757 801.919 105.033C858.892 193.59 898.271 283.015 920.055 373.309C941.839 463.602 953.15 561.71 953.988 667.631Z" fill="url(#paint0_linear_232_557)"/>
<defs>
<linearGradient id="paint0_linear_232_557" x1="0" y1="0" x2="0" y2="967.969" gradientUnits="userSpaceOnUse">
<stop stop-color="#3CBEBE"/>
<stop offset="1" stop-color="#215FFF"/>
</linearGradient>
</defs>
</svg>
