<svg width="1440" height="733" viewBox="0 0 1440 733" fill="none" xmlns="http://www.w3.org/2000/svg">
<g style="mix-blend-mode:darken">
<path d="M1654.97 509.15C1656.87 588.096 1561.76 650.541 1369.63 696.485C1177.5 742.429 979.665 745.017 776.121 704.25C572.578 663.483 382.351 642.776 205.439 642.129C28.5276 641.482 -134.117 617.539 -282.494 570.301C-430.872 523.063 -506.963 463.207 -510.767 390.732C-514.572 318.257 -471.77 245.782 -382.364 173.307C-292.957 100.832 -135.068 61.0357 91.3027 53.9176C317.673 46.7995 504.313 101.267 773.268 17.0331C950.885 -28.226 1180.35 23.8276 1309.71 89.8315C1439.06 155.835 1528.47 222.486 1577.93 289.785C1627.39 357.083 1653.07 430.204 1654.97 509.15Z" fill="url(#paint0_linear_232_549)"/>
</g>
<defs>
<linearGradient id="paint0_linear_232_549" x1="-511" y1="11.5464" x2="-511" y2="732.998" gradientUnits="userSpaceOnUse">
<stop stop-color="#3CBEBE"/>
<stop offset="1" stop-color="#2F6FFB"/>
</linearGradient>
</defs>
</svg>
