<svg width="1440" height="1495" viewBox="0 0 1440 1495" fill="none" xmlns="http://www.w3.org/2000/svg">
<path d="M1916.97 1038.59C1918.97 1199.48 1819.11 1326.75 1617.4 1420.38C1415.69 1514.02 1207.99 1519.29 994.299 1436.21C780.607 1353.12 580.894 1310.92 395.162 1309.6C209.429 1308.28 38.6752 1259.49 -117.101 1163.21C-272.876 1066.94 -352.761 944.951 -356.755 797.245C-360.75 649.538 -315.814 501.831 -221.95 354.125C-128.085 206.418 37.6766 125.312 275.334 110.805C512.992 96.2978 708.938 207.304 991.303 35.6326C1177.78 -56.6071 1418.69 49.4801 1554.49 183.999C1690.3 318.517 1784.16 454.354 1836.09 591.511C1888.01 728.667 1914.97 877.692 1916.97 1038.59Z" fill="url(#paint0_linear_232_576)"/>
<defs>
<linearGradient id="paint0_linear_232_576" x1="-357" y1="24.4505" x2="-357" y2="1494.8" gradientUnits="userSpaceOnUse">
<stop stop-color="#F9F9F9"/>
<stop offset="1" stop-color="white" stop-opacity="0"/>
</linearGradient>
</defs>
</svg>
