<svg width="898" height="1087" viewBox="0 0 898 1087" fill="none" xmlns="http://www.w3.org/2000/svg">
<path d="M1036.53 587.15C860.209 645.289 761.787 762.213 741.263 937.922C720.739 1113.63 634 1112.49 572.5 1041.21C486.672 941.725 372.763 890.119 212.302 864.279C51.8411 838.44 -17.6608 722.162 3.7962 515.445C25.2532 308.728 114.539 299.995 275 314.207C435.461 328.419 757.309 391.5 833.5 255C897.132 141 833.5 43 866.5 0C929 28 925 257 1081.31 360.407C1227.78 453.43 1212.85 529.01 1036.53 587.15Z" fill="url(#paint0_linear_135_101)"/>
<defs>
<linearGradient id="paint0_linear_135_101" x1="243.605" y1="-294.086" x2="243.605" y2="901.914" gradientUnits="userSpaceOnUse">
<stop stop-color="#2DB1FF"/>
<stop offset="1" stop-color="#3CBEBE"/>
</linearGradient>
</defs>
</svg>
