<svg width="75" height="75" viewBox="0 0 75 75" fill="none" xmlns="http://www.w3.org/2000/svg">
<circle cx="37.5" cy="37.5" r="37.5" fill="#00A3E0" fill-opacity="0.17"/>
<rect x="42.8667" y="21" width="4.15312" height="36.273" rx="2.07656" transform="rotate(22.5 42.8667 21)" fill="#00A3E0"/>
<path d="M23.3398 24.8891C24.1507 24.0782 25.4655 24.0782 26.2765 24.8891V24.8891C27.0874 25.7001 27.0874 27.0149 26.2765 27.8258L13.2174 40.8849L10.2807 37.9482L23.3398 24.8891Z" fill="#00A3E0"/>
<path d="M62.4988 35.2393L65.4355 38.176L52.3764 51.235C51.5655 52.046 50.2507 52.046 49.4397 51.235V51.235C48.6288 50.4241 48.6288 49.1093 49.4397 48.2983L62.4988 35.2393Z" fill="#00A3E0"/>
<path d="M25.996 48.2983C26.807 49.1092 26.807 50.424 25.996 51.2349V51.2349C25.1851 52.0459 23.8703 52.0459 23.0593 51.2349L10.0002 38.1759L12.9369 35.2392L25.996 48.2983Z" fill="#00A3E0"/>
<path d="M65.4358 37.9006L62.4991 40.8373L49.44 27.7783C48.6291 26.9673 48.6291 25.6525 49.44 24.8416V24.8416C50.251 24.0306 51.5658 24.0306 52.3767 24.8416L65.4358 37.9006Z" fill="#00A3E0"/>
</svg>
