<svg width="76" height="77" viewBox="0 0 76 77" fill="none" xmlns="http://www.w3.org/2000/svg">
<rect x="15" y="1" width="47" height="75" fill="white"/>
<path d="M0.0175625 16.0266C0.0159531 7.74381 6.72914 1.02799 15.0119 1.02638V1.02638L15.0265 76.0126V76.0126C6.74371 76.0142 0.0279139 69.301 0.0263045 61.0182L0.0175625 16.0266Z" fill="#012169"/>
<rect x="45.0151" y="46.0122" width="14.9972" height="29.9945" fill="#2DB1FF"/>
<rect x="45.012" y="29.5154" width="19.2081" height="14.9972" fill="#012169"/>
<path d="M61.5037 1.01733L65.0012 1.01665C70.524 1.01558 75.002 5.49186 75.0031 11.0147L75.0138 66.0009C75.0149 71.5237 70.5386 76.0018 65.0157 76.0029L61.5182 76.0035L61.5037 1.01733Z" fill="#012169"/>
<rect x="14.5962" y="61.0156" width="28.9221" height="14.9972" fill="#012169"/>
<rect x="31.5088" y="1.02319" width="31.9669" height="13.4975" fill="#012169"/>
<rect x="10.9048" y="29.522" width="19.1099" height="14.9972" fill="#012169"/>
<rect x="16.5117" y="1.02612" width="13.4975" height="26.995" fill="#2DB1FF"/>
</svg>
