<svg width="83" height="79" viewBox="0 0 83 79" fill="none" xmlns="http://www.w3.org/2000/svg">
<circle cx="37.5" cy="41.5" r="37.5" fill="#37BDBD" fill-opacity="0.17"/>
<ellipse cx="67.0098" cy="12.3849" rx="15.1036" ry="12.3849" fill="#37BDBD"/>
<ellipse cx="59.458" cy="12.2339" rx="1.81243" ry="1.66139" fill="black"/>
<ellipse cx="59.458" cy="12.2339" rx="1.81243" ry="1.66139" fill="black"/>
<ellipse cx="59.458" cy="12.2339" rx="1.81243" ry="1.66139" fill="black"/>
<ellipse cx="59.458" cy="12.2339" rx="1.81243" ry="1.66139" fill="white"/>
<ellipse cx="74.5616" cy="12.2339" rx="1.81243" ry="1.66139" fill="black"/>
<ellipse cx="74.5616" cy="12.2339" rx="1.81243" ry="1.66139" fill="black"/>
<ellipse cx="74.5616" cy="12.2339" rx="1.81243" ry="1.66139" fill="black"/>
<ellipse cx="74.5616" cy="12.2339" rx="1.81243" ry="1.66139" fill="white"/>
<ellipse cx="67.0098" cy="12.2339" rx="1.81243" ry="1.66139" fill="black"/>
<ellipse cx="67.0098" cy="12.2339" rx="1.81243" ry="1.66139" fill="black"/>
<ellipse cx="67.0098" cy="12.2339" rx="1.81243" ry="1.66139" fill="black"/>
<ellipse cx="67.0098" cy="12.2339" rx="1.81243" ry="1.66139" fill="white"/>
<path d="M53.1145 16.916L60.9684 23.7126L51.5 25L53.1145 16.916Z" fill="#37BDBD"/>
<path d="M22 59.0528C22 50.1871 29.1871 43 38.0528 43C46.9185 43 54.1056 50.1871 54.1056 59.0528V61.6796H22V59.0528Z" fill="#37BDBD"/>
<circle cx="37.7561" cy="31.7561" r="8.75607" fill="#37BDBD"/>
</svg>
